Coordinates
version=1
nRows=5
nColumns=40
inDegrees=yes

Units are S.I. units (second, meters, Newtons, ...)
If the header above contains a line with 'inDegrees', this indicates whether rotational values are in degrees (yes) or radians (no).

endheader
time	pelvis_tilt	pelvis_list	pelvis_rotation	pelvis_tx	pelvis_ty	pelvis_tz	hip_flexion_r	hip_adduction_r	hip_rotation_r	knee_angle_r	knee_angle_r_beta	ankle_angle_r	subtalar_angle_r	mtp_angle_r	hip_flexion_l	hip_adduction_l	hip_rotation_l	knee_angle_l	knee_angle_l_beta	ankle_angle_l	subtalar_angle_l	mtp_angle_l	lumbar_extension	lumbar_bending	lumbar_rotation	arm_flex_r	arm_add_r	arm_rot_r	elbow_flex_r	pro_sup_r	wrist_flex_r	wrist_dev_r	arm_flex_l	arm_add_l	arm_rot_l	elbow_flex_l	pro_sup_l	wrist_flex_l	wrist_dev_l
      1.23000000	     -0.42921235	     -7.30667690	     86.06703717	      0.18037981	      0.93642109	     -1.28115995	     31.70496151	     -1.89747826	     -3.59435707	     50.16583983	      0.87555908	      0.78378301	      0.00000000	      0.00000000	      8.84721921	      3.57055939	     -4.34552388	      8.88680783	      0.15510406	      1.82371387	      0.00000000	      0.00000000	     -1.36491768	      0.48615268	     -0.35067821	      0.00000000	      0.00000000	      0.00000000	      0.00000000	      0.00000000	      0.00000000	      0.00000000	      0.00000000	      0.00000000	      0.00000000	      0.00000000	      0.00000000	      0.00000000	      0.00000000
      1.24000000	     -0.31267290	     -7.56986086	     86.47976159	      0.18006828	      0.93591232	     -1.29862568	     32.73809171	     -1.71321071	     -4.15969574	     46.23398446	      0.80693526	      0.82353033	      0.00000000	      0.00000000	      7.29806791	      3.64035546	     -3.78354048	      7.65299232	      0.13356991	      2.14676237	      0.00000000	      0.00000000	     -1.10291994	      0.71019511	     -1.01635577	      0.00000000	      0.00000000	      0.00000000	      0.00000000	      0.00000000	      0.00000000	      0.00000000	      0.00000000	      0.00000000	      0.00000000	      0.00000000	      0.00000000	      0.00000000	      0.00000000
      1.25000000	     -0.24380688	     -7.25148383	     86.93516044	      0.17977422	      0.93568091	     -1.31667290	     32.91360625	     -1.64628775	     -4.78000700	     41.94073020	      0.73200383	      0.72179266	      0.00000000	      0.00000000	      4.89949967	      3.79988328	     -3.14404775	      6.03667362	      0.10535983	      2.07098258	      0.00000000	      0.00000000	     -1.48158687	      0.81928044	     -1.71402518	      0.00000000	      0.00000000	      0.00000000	      0.00000000	      0.00000000	      0.00000000	      0.00000000	      0.00000000	      0.00000000	      0.00000000	      0.00000000	      0.00000000	      0.00000000	      0.00000000
      1.26000000	     -0.26730549	     -7.43530400	     87.40597174	      0.17951478	      0.93407909	     -1.33451373	     33.62122341	     -1.62057341	     -5.31473080	     37.57194066	      0.65575407	      0.63705406	      0.00000000	      0.00000000	      3.23001002	      3.97988102	     -2.40815452	      4.77306594	      0.08330572	      2.33831055	      0.00000000	      0.00000000	     -1.26191211	      0.85985277	     -2.40690376	      0.00000000	      0.00000000	      0.00000000	      0.00000000	      0.00000000	      0.00000000	      0.00000000	      0.00000000	      0.00000000	      0.00000000	      0.00000000	      0.00000000	      0.00000000	      0.00000000
      1.27000000	     -0.39091992	     -7.40337548	     87.86455673	      0.17942135	      0.93217147	     -1.35271203	     33.98944159	     -1.67368376	     -5.76390623	     33.06356822	      0.57706813	      0.61665037	      0.00000000	      0.00000000	      1.24159545	      4.23595759	     -1.73393353	      3.39073585	      0.05917950	      2.51070983	      0.00000000	      0.00000000	     -1.25520907	      0.73587546	     -3.15796614	      0.00000000	      0.00000000	      0.00000000	      0.00000000	      0.00000000	      0.00000000	      0.00000000	      0.00000000	      0.00000000	      0.00000000	      0.00000000	      0.00000000	      0.00000000	      0.00000000
